<svg xmlns="http://www.w3.org/2000/svg" xmlns:xlink="http://www.w3.org/1999/xlink" viewBox="0,0,256,256" width="20px" height="20px" fill-rule="nonzero"><g fill-opacity="0" fill="#dddddd" fill-rule="nonzero" stroke="none" stroke-width="1" stroke-linecap="butt" stroke-linejoin="miter" stroke-miterlimit="10" stroke-dasharray="" stroke-dashoffset="0" font-family="none" font-weight="none" font-size="none" text-anchor="none" style="mix-blend-mode: normal"><path d="M0,256v-256h256v256z" id="bgRectangle"></path></g><g fill="none" fill-rule="nonzero" stroke="#ffffff" stroke-width="2" stroke-linecap="round" stroke-linejoin="round" stroke-miterlimit="10" stroke-dasharray="" stroke-dashoffset="0" font-family="none" font-weight="none" font-size="none" text-anchor="none" style="mix-blend-mode: normal"><g transform="scale(4,4)"><path d="M28.392,14.981c-0.512,-9.22 7.683,-11.941 7.875,-0.224c4.37,-0.105 9.668,0.672 9.604,2.081c-0.105,2.306 -5.698,3.169 -14.982,3.393c-11.523,0.278 -17.48,-1.984 -17.48,-4.098c0,-1.409 2.433,-4.482 19.08,-4.994c20.223,-0.622 23.178,5.698 16.007,9.476l-0.96,31.95c-0.597,6.915 -29.858,6.787 -29.815,0l-0.95,-26.219c-0.115,-3.75 5.877,-3.578 5.987,1.025l0.519,21.683c0.091,3.78 5.723,3.671 5.723,-0.069v-21.71c0,-3.968 5.986,-4.01 6,-0.01l0.073,21.852c0.013,3.728 5.854,3.692 5.927,-0.01l0.307,-21.704c0,0 -0.064,-3.201 1.793,-4.546"></path></g></g></svg>